<?xml version="1.0" encoding="utf-8"?>
<!-- Generator: Adobe Illustrator 24.3.0, SVG Export Plug-In . SVG Version: 6.00 Build 0)  -->
<svg version="1.1" id="Layer_1" xmlns="http://www.w3.org/2000/svg" xmlns:xlink="http://www.w3.org/1999/xlink" x="0px" y="0px"
	 viewBox="0 0 2000 2000" style="enable-background:new 0 0 2000 2000;" xml:space="preserve">
<style type="text/css">
	.st0{fill:#1B2049;}
	.st1{fill:#F5C347;}
</style>
<path class="st0" d="M1436.77,1042.25c-52.58,69.18-169.25,75.85-238.33,14.59c-75.1-66.59-77.8-182.93-5.85-251.85
	c70.88-67.9,186.34-62.55,248.62,13c-17.65,16.29-35.39,32.66-54.04,49.87c-5.1-4.41-9.53-8.36-14.08-12.17
	c-38.25-32.07-92.53-30.37-128.06,3.99c-34.7,33.55-38.71,88.16-9.31,126.5c30.29,39.49,83.34,49.59,125.61,22.47
	c10.79-6.92,17.92-5.8,27.24,0.92C1404.3,1020.9,1420.64,1031.37,1436.77,1042.25z"/>
<path class="st0" d="M783.89,832.44c-43.75,0-86.75,0-131.75,0c0,89.13,0,176.57,0,265.45c-25.92,0-49.86,0-74.9,0
	c0-113.01,0-225.91,0-339.68c69.37,0,137.34,0,206.65,0C783.89,782.89,783.89,806.8,783.89,832.44z"/>
<path class="st0" d="M1125.28,757.42c-33.68,49.76-64.26,95.81-95.92,141.12c-8.05,11.52-9.43,19.24-0.65,31.68
	c36.14,51.2,70.84,103.42,106.03,155.3c2.33,3.44,4.32,7.11,8.3,13.73c-29.96,0-57.53,0.42-85.05-0.45
	c-4.11-0.13-9.05-5.58-11.9-9.74c-37.19-54.19-73.9-108.71-111.21-162.81c-5.64-8.18-6.28-13.84-0.35-22.4
	c31.21-45.01,61.57-90.61,92.63-135.72c3.11-4.52,8.82-10.05,13.5-10.22C1067.24,756.91,1093.87,757.42,1125.28,757.42z"/>
<path class="st0" d="M904.74,955.68c-24.61,0-48.12,0-73.23,0c0-65.37,0-130.62,0-197.11c23.96,0,47.94,0,73.23,0
	C904.74,823.91,904.74,888.69,904.74,955.68z"/>
<path class="st0" d="M488.46,831.73c-24.42,0-47.93,0-72.95,0c0-23.88,0-47.79,0-73.06c23.96,0,47.88,0,72.95,0
	C488.46,782.57,488.46,806.03,488.46,831.73z"/>
<path class="st0" d="M904.68,1098.64c-25.09,0-48.58,0-73.41,0c0-24.59,0-48.47,0-73.65c24.17,0,48.1,0,73.41,0
	C904.68,1049.12,904.68,1073,904.68,1098.64z"/>
<circle class="st1" cx="1516.54" cy="1014.5" r="67.95"/>
</svg>
